<svg height="100%" width="100%" id="bg-svg" viewBox="0 0 1440 400" xmlns="http://www.w3.org/2000/svg" class="transition duration-300 ease-in-out delay-150"><path d="M 0,400 C 0,400 0,100 0,100 C 41.347096168080625,98.61803507373456 82.69419233616125,97.23607014746912 125,90 C 167.30580766383875,82.76392985253088 210.5703268234356,69.6737544838581 243,66 C 275.4296731765644,62.326245516141896 297.0245003700963,68.06891191709846 338,84 C 378.9754996299037,99.93108808290154 439.33167169617946,126.0505978477481 479,127 C 518.6683283038205,127.9494021522519 537.648812845186,103.72869669190914 583,91 C 628.351187154814,78.27130330809086 700.0730769230769,77.03461538461538 740,84 C 779.9269230769231,90.96538461538462 788.0588794625063,106.13284176962934 825,114 C 861.9411205374937,121.86715823037066 927.6914052268975,122.43401753686727 969,124 C 1010.3085947731025,125.56598246313273 1027.1754996299037,128.13108808290156 1060,117 C 1092.8245003700963,105.86891191709843 1141.6065962534874,81.04163013152649 1188,75 C 1234.3934037465126,68.95836986847351 1278.3981153561465,81.70239139099242 1320,89 C 1361.6018846438535,96.29760860900758 1400.8009423219269,98.14880430450378 1440,100 C 1440,100 1440,400 1440,400 Z" stroke="none" stroke-width="0" fill="#eb3d3366" class="transition-all duration-300 ease-in-out delay-150"></path><path d="M 0,400 C 0,400 0,200 0,200 C 48.627642392150165,217.98754009375773 97.25528478430033,235.97508018751543 130,230 C 162.74471521569967,224.02491981248457 179.60650325494885,194.08721934369603 222,189 C 264.39349674505115,183.91278065630397 332.3187021959043,203.67604243770046 372,206 C 411.6812978040957,208.32395756229954 423.11868796143403,193.2086109055021 458,200 C 492.88131203856597,206.7913890944979 551.2065459583596,235.48951394029115 600,227 C 648.7934540416404,218.51048605970885 688.0551282051281,172.83333333333331 728,162 C 767.9448717948719,151.16666666666669 808.572941221128,175.1771527263755 848,193 C 887.427058778872,210.8228472736245 925.6531069103605,222.45805576116453 961,227 C 996.3468930896395,231.54194423883547 1028.8146311374292,228.9906242289662 1065,214 C 1101.1853688625708,199.0093757710338 1141.0883685399228,171.57944732297065 1183,163 C 1224.9116314600772,154.42055267702935 1268.8318947028793,164.69158647915125 1312,174 C 1355.1681052971207,183.30841352084875 1397.5840526485604,191.65420676042436 1440,200 C 1440,200 1440,400 1440,400 Z" stroke="none" stroke-width="0" fill="#eb3d3388" class="transition-all duration-300 ease-in-out delay-150"></path><path d="M 0,400 C 0,400 0,300 0,300 C 38.70061113325362,313.23554631896604 77.40122226650723,326.47109263793203 117,321 C 156.59877773349277,315.52890736206797 197.0957220672247,291.3511757672379 241,282 C 284.9042779327753,272.6488242327621 332.2158894645941,278.12420429311624 378,285 C 423.7841105354059,291.87579570688376 468.0407200743988,300.1520070602972 499,306 C 529.9592799256012,311.8479929397028 547.6212302378106,315.2677674656949 589,305 C 630.3787697621894,294.7322325343051 695.4743589743589,270.7769230769231 742,278 C 788.5256410256411,285.2230769230769 816.4813338647538,323.62454022661274 849,335 C 881.5186661352462,346.37545977338726 918.6003055666266,330.72491601662585 956,321 C 993.3996944333734,311.27508398337415 1031.1174438687392,307.47579570688384 1073,296 C 1114.8825561312608,284.52420429311616 1160.9299189584162,265.371901155839 1203,270 C 1245.0700810415838,274.628098844161 1283.1628802975952,303.0365996697603 1322,312 C 1360.8371197024048,320.9634003302397 1400.4185598512024,310.48170016511983 1440,300 C 1440,300 1440,400 1440,400 Z" stroke="none" stroke-width="0" fill="#eb3d33ff" class="transition-all duration-300 ease-in-out delay-150"></path></svg>
